<?xml version="1.0" encoding="UTF-8"?>
<svg xmlns="http://www.w3.org/2000/svg" viewBox="0 0 900 430" role="img" aria-labelledby="rr-title rr-desc">
  <title id="rr-title">Run a Cookbook — the core loop</title>
  <desc id="rr-desc">The verified flagship flow: SousMeow builds a prompt from a recipe and the user's pantry, the user runs it in their own AI and pastes the response back, human quality checks are confirmed, the artifact is approved as an immutable version, and finally a project kit is exported. SousMeow performs no AI call itself.</desc>
  <defs>
    <marker id="rr-arrow" markerWidth="9" markerHeight="9" refX="7" refY="4" orient="auto">
      <path d="M0,0 L8,4 L0,8 z" fill="#4f5c56"/>
    </marker>
    <style>
      .t { font-family: "Figtree","Segoe UI",sans-serif; fill:#1a2421; }
      .step { fill:#e7f4f0; stroke:#0c7c6c; stroke-width:1.5; }
      .user { fill:#f6ead4; stroke:#7a4210; stroke-width:1.5; }
      .lbl { font-size:13.5px; font-weight:600; }
      .sm { font-size:11.5px; fill:#4f5c56; }
      .arrow { stroke:#4f5c56; stroke-width:1.6; fill:none; marker-end:url(#rr-arrow); }
      .title { font-size:21px; font-weight:800; font-family:"Outfit","Figtree",sans-serif; }
    </style>
  </defs>
  <rect width="900" height="430" fill="#f4f0e8"/>
  <text class="t title" x="28" y="40">Run a Cookbook — the core loop</text>
  <text class="t sm" x="28" y="62">Verified end-to-end from source. Amber steps happen in the user's own AI, outside SousMeow.</text>

  <rect class="t step" x="30" y="95" width="150" height="70" rx="10"/>
  <text class="t lbl" x="105" y="125" text-anchor="middle">1 · Build prompt</text>
  <text class="t sm" x="105" y="145" text-anchor="middle">Recipe + Pantry</text>

  <rect class="t user" x="210" y="95" width="150" height="70" rx="10"/>
  <text class="t lbl" x="285" y="120" text-anchor="middle">2 · Run in AI</text>
  <text class="t sm" x="285" y="139" text-anchor="middle">User's own tool</text>
  <text class="t sm" x="285" y="155" text-anchor="middle">(outside SousMeow)</text>

  <rect class="t user" x="390" y="95" width="150" height="70" rx="10"/>
  <text class="t lbl" x="465" y="125" text-anchor="middle">3 · Paste response</text>
  <text class="t sm" x="465" y="145" text-anchor="middle">Escaped + stored</text>

  <rect class="t step" x="570" y="95" width="160" height="70" rx="10"/>
  <text class="t lbl" x="650" y="120" text-anchor="middle">4 · Quality checks</text>
  <text class="t sm" x="650" y="139" text-anchor="middle">Human confirms</text>
  <text class="t sm" x="650" y="155" text-anchor="middle">each check</text>

  <line class="arrow" x1="180" y1="130" x2="208" y2="130"/>
  <line class="arrow" x1="360" y1="130" x2="388" y2="130"/>
  <line class="arrow" x1="540" y1="130" x2="568" y2="130"/>

  <rect class="t step" x="250" y="235" width="170" height="70" rx="10"/>
  <text class="t lbl" x="335" y="262" text-anchor="middle">5 · Approve + version</text>
  <text class="t sm" x="335" y="282" text-anchor="middle">Immutable artifact</text>

  <rect class="t step" x="470" y="235" width="170" height="70" rx="10"/>
  <text class="t lbl" x="555" y="262" text-anchor="middle">6 · Export kit</text>
  <text class="t sm" x="555" y="282" text-anchor="middle">Project Kit (kit.html)</text>

  <path class="arrow" d="M650 165 L650 205 L335 205 L335 233"/>
  <line class="arrow" x1="420" y1="270" x2="468" y2="270"/>

  <text class="t sm" x="28" y="400">Related warnings: pasted responses stay escaped (including in kit.html); Pantry/Artifact read and write paths change together.</text>
</svg>
